<?xml version="1.0"?>
<svg width="512" height="512" xmlns="http://www.w3.org/2000/svg" xmlns:svg="http://www.w3.org/2000/svg">
 <!--!Font Awesome Free 6.7.1 by @fontawesome - https://fontawesome.com License - https://fontawesome.com/license/free Copyright 2024 Fonticons, Inc.-->
 <g class="layer">
  <title>Layer 1</title>
  <ellipse cx="256.46" cy="256.87" fill="#ffffff" id="svg_2" rx="169" ry="169" transform="matrix(1 0 0 1 0 0)"/>
  <path d="m255,511a256,256 0 1 0 0,-512a256,256 0 1 0 0,512zm11.3,-395.3l112,112c4.6,4.6 5.9,11.5 3.5,17.4s-8.3,9.9 -14.8,9.9l-64,0l0,96c0,17.7 -14.3,32 -32,32l-32,0c-17.7,0 -32,-14.3 -32,-32l0,-96l-64,0c-6.5,0 -12.3,-3.9 -14.8,-9.9s-1.1,-12.9 3.5,-17.4l112,-112c6.2,-6.2 16.4,-6.2 22.6,0z" fill="#C70101" id="svg_1"/>
 </g>
</svg>